HIERARCHY
ROOT Hips
{
	OFFSET 0.000000 71.206352 2.654994
	CHANNELS 6 Xposition Yposition Zposition Xrotation Yrotation Zrotation
	JOINT Pelvis
	{
		OFFSET 0.000000 0.000000 0.000000
		CHANNELS 3 Xrotation Yrotation Zrotation
		JOINT LeftUpLeg
		{
			OFFSET 6.797117 -2.508530 -1.318654
			CHANNELS 3 Xrotation Yrotation Zrotation
			JOINT LeftLeg
			{
				OFFSET 2.604768 -29.125713 0.690240
				CHANNELS 3 Xrotation Yrotation Zrotation
				JOINT LeftFoot
				{
					OFFSET 2.495626 -29.462662 -0.266779
					CHANNELS 3 Xrotation Yrotation Zrotation
					JOINT LeftToeBase
					{
						OFFSET 3.145477 -8.630991 16.059889
						CHANNELS 3 Xrotation Yrotation Zrotation
						End Site
						{
							OFFSET 0.000000 18.501570 0.000000
						}
					}
				}
			}
			JOINT Left_ShortSleeve
			{
				OFFSET 1.173896 -10.418373 1.153777
				CHANNELS 3 Xrotation Yrotation Zrotation
				End Site
				{
					OFFSET 0.000000 19.898849 0.000000
				}
			}
		}
		JOINT RightUpLeg
		{
			OFFSET -6.797117 -2.508530 -1.318654
			CHANNELS 3 Xrotation Yrotation Zrotation
			JOINT RightLeg
			{
				OFFSET -2.618195 -29.124561 0.688025
				CHANNELS 3 Xrotation Yrotation Zrotation
				JOINT RightFoot
				{
					OFFSET -2.482200 -29.463818 -0.264565
					CHANNELS 3 Xrotation Yrotation Zrotation
					JOINT RightToeBase
					{
						OFFSET -3.115344 -8.682778 16.113401
						CHANNELS 3 Xrotation Yrotation Zrotation
						End Site
						{
							OFFSET 0.000000 18.567112 0.000000
						}
					}
				}
			}
			JOINT Right_ShortSleeve
			{
				OFFSET -1.173896 -10.418373 1.153777
				CHANNELS 3 Xrotation Yrotation Zrotation
				End Site
				{
					OFFSET 0.000000 19.898849 0.000000
				}
			}
		}
	}
	JOINT Spine
	{
		OFFSET 0.000000 13.368111 0.470529
		CHANNELS 3 Xrotation Yrotation Zrotation
		JOINT Spine1
		{
			OFFSET 0.146996 13.837402 0.538789
			CHANNELS 3 Xrotation Yrotation Zrotation
			JOINT Spine2
			{
				OFFSET 0.167995 16.242874 -1.435485
				CHANNELS 3 Xrotation Yrotation Zrotation
				JOINT Neck
				{
					OFFSET 0.217193 18.631516 -1.679142
					CHANNELS 3 Xrotation Yrotation Zrotation
					JOINT Head
					{
						OFFSET 0.000000 6.599380 1.385859
						CHANNELS 3 Xrotation Yrotation Zrotation
						JOINT Hat
						{
							OFFSET -0.532184 27.220581 -10.096070
							CHANNELS 3 Xrotation Yrotation Zrotation
							End Site
							{
								OFFSET 0.000000 22.029861 0.000000
							}
						}
						JOINT HairD
						{
							OFFSET -10.777430 17.437408 -1.325938
							CHANNELS 3 Xrotation Yrotation Zrotation
							JOINT HairD1
							{
								OFFSET -3.290256 -11.051163 1.062188
								CHANNELS 3 Xrotation Yrotation Zrotation
								End Site
								{
									OFFSET 0.000000 11.579391 0.000000
								}
							}
						}
						JOINT HairB
						{
							OFFSET -10.777430 17.437408 1.467893
							CHANNELS 3 Xrotation Yrotation Zrotation
							JOINT HairB1
							{
								OFFSET -1.561211 -12.956329 3.590162
								CHANNELS 3 Xrotation Yrotation Zrotation
								End Site
								{
									OFFSET 0.000000 13.534882 0.000000
								}
							}
						}
						JOINT HairA
						{
							OFFSET 9.713062 17.437408 1.467893
							CHANNELS 3 Xrotation Yrotation Zrotation
							JOINT HairA1
							{
								OFFSET 1.561211 -12.956329 3.590162
								CHANNELS 3 Xrotation Yrotation Zrotation
								End Site
								{
									OFFSET 0.000000 13.534882 0.000000
								}
							}
						}
						JOINT HairC
						{
							OFFSET 9.713062 17.437408 -1.325938
							CHANNELS 3 Xrotation Yrotation Zrotation
							JOINT HairC1
							{
								OFFSET 3.290255 -11.051163 1.062188
								CHANNELS 3 Xrotation Yrotation Zrotation
								End Site
								{
									OFFSET 0.000000 11.579391 0.000000
								}
							}
						}
					}
				}
				JOINT LeftShoulder
				{
					OFFSET 5.101767 15.108002 -2.763695
					CHANNELS 3 Xrotation Yrotation Zrotation
					JOINT LeftArm
					{
						OFFSET 9.825546 2.506256 -1.597438
						CHANNELS 3 Xrotation Yrotation Zrotation
						JOINT LeftForeArm
						{
							OFFSET 21.924620 0.000000 -1.351923
							CHANNELS 3 Xrotation Yrotation Zrotation
							JOINT LeftHand
							{
								OFFSET 33.867149 -0.000336 -0.895185
								CHANNELS 3 Xrotation Yrotation Zrotation
								JOINT LeftHandThumb1
								{
									OFFSET 6.800735 -1.610214 3.624442
									CHANNELS 3 Xrotation Yrotation Zrotation
									JOINT LeftHandThumb2
									{
										OFFSET 2.133118 -1.047562 2.197256
										CHANNELS 3 Xrotation Yrotation Zrotation
										JOINT LeftHandThumb3
										{
											OFFSET 2.939781 -1.955193 1.239051
											CHANNELS 3 Xrotation Yrotation Zrotation
											End Site
											{
												OFFSET 0.000000 3.741707 0.000000
											}
										}
									}
								}
								JOINT LeftHandIndex1
								{
									OFFSET 14.184837 0.837936 3.778969
									CHANNELS 3 Xrotation Yrotation Zrotation
									JOINT LeftHandIndex2
									{
										OFFSET 3.454674 -0.747025 -0.349037
										CHANNELS 3 Xrotation Yrotation Zrotation
										JOINT LeftHandIndex3
										{
											OFFSET 2.708313 -1.000595 -0.200658
											CHANNELS 3 Xrotation Yrotation Zrotation
											End Site
											{
												OFFSET 0.000000 2.894211 0.000000
											}
										}
									}
								}
								JOINT LeftHandMiddle1
								{
									OFFSET 13.765343 0.551865 -0.058510
									CHANNELS 3 Xrotation Yrotation Zrotation
									JOINT LeftHandMiddle2
									{
										OFFSET 3.329315 -0.830414 -0.218270
										CHANNELS 3 Xrotation Yrotation Zrotation
										JOINT LeftHandMiddle3
										{
											OFFSET 3.521812 -1.082275 -0.230450
											CHANNELS 3 Xrotation Yrotation Zrotation
											End Site
											{
												OFFSET 0.000000 3.691559 0.000000
											}
										}
									}
								}
								JOINT LeftHandRing1
								{
									OFFSET 13.969360 -0.122360 -3.062001
									CHANNELS 3 Xrotation Yrotation Zrotation
									JOINT LeftHandRing2
									{
										OFFSET 3.063065 -0.760193 -0.203345
										CHANNELS 3 Xrotation Yrotation Zrotation
										JOINT LeftHandRing3
										{
											OFFSET 3.200409 -0.861923 -0.256632
											CHANNELS 3 Xrotation Yrotation Zrotation
											End Site
											{
												OFFSET 0.000000 3.324356 0.000000
											}
										}
									}
								}
								JOINT LeftHandPinky1
								{
									OFFSET 13.134644 -0.420990 -5.726565
									CHANNELS 3 Xrotation Yrotation Zrotation
									JOINT LeftHandPinky2
									{
										OFFSET 2.705887 -0.872284 -0.187246
										CHANNELS 3 Xrotation Yrotation Zrotation
										JOINT LeftHandPinky3
										{
											OFFSET 2.653091 -0.882462 -0.224701
											CHANNELS 3 Xrotation Yrotation Zrotation
											End Site
											{
												OFFSET 0.000000 2.805023 0.000000
											}
										}
									}
								}
							}
							JOINT Left_Sleeve
							{
								OFFSET 6.611050 -0.646652 0.631114
								CHANNELS 3 Xrotation Yrotation Zrotation
								End Site
								{
									OFFSET 0.000000 20.275742 0.000000
								}
							}
						}
					}
				}
				JOINT RightShoulder
				{
					OFFSET -5.731749 15.108002 -2.763695
					CHANNELS 3 Xrotation Yrotation Zrotation
					JOINT RightArm
					{
						OFFSET -9.825546 2.506256 -1.597438
						CHANNELS 3 Xrotation Yrotation Zrotation
						JOINT RightForeArm
						{
							OFFSET -21.924620 0.000000 -1.351923
							CHANNELS 3 Xrotation Yrotation Zrotation
							JOINT RightHand
							{
								OFFSET -33.867149 -0.000336 -0.895185
								CHANNELS 3 Xrotation Yrotation Zrotation
								JOINT RightHandThumb1
								{
									OFFSET -6.800735 -1.610214 3.624442
									CHANNELS 3 Xrotation Yrotation Zrotation
									JOINT RightHandThumb2
									{
										OFFSET -2.133118 -1.047562 2.197256
										CHANNELS 3 Xrotation Yrotation Zrotation
										JOINT RightHandThumb3
										{
											OFFSET -2.939781 -1.955193 1.239051
											CHANNELS 3 Xrotation Yrotation Zrotation
											End Site
											{
												OFFSET 0.000000 3.741707 0.000000
											}
										}
									}
								}
								JOINT RightHandIndex1
								{
									OFFSET -14.184837 0.837936 3.778969
									CHANNELS 3 Xrotation Yrotation Zrotation
									JOINT RightHandIndex2
									{
										OFFSET -3.454674 -0.747025 -0.349037
										CHANNELS 3 Xrotation Yrotation Zrotation
										JOINT RightHandIndex3
										{
											OFFSET -2.708313 -1.000595 -0.200658
											CHANNELS 3 Xrotation Yrotation Zrotation
											End Site
											{
												OFFSET 0.000000 2.894211 0.000000
											}
										}
									}
								}
								JOINT RightHandMiddle1
								{
									OFFSET -13.765343 0.551865 -0.058511
									CHANNELS 3 Xrotation Yrotation Zrotation
									JOINT RightHandMiddle2
									{
										OFFSET -3.329315 -0.830414 -0.218269
										CHANNELS 3 Xrotation Yrotation Zrotation
										JOINT RightHandMiddle3
										{
											OFFSET -3.521812 -1.082275 -0.230450
											CHANNELS 3 Xrotation Yrotation Zrotation
											End Site
											{
												OFFSET 0.000000 3.691559 0.000000
											}
										}
									}
								}
								JOINT RightHandRing1
								{
									OFFSET -13.969353 -0.122360 -3.062001
									CHANNELS 3 Xrotation Yrotation Zrotation
									JOINT RightHandRing2
									{
										OFFSET -3.063072 -0.760193 -0.203345
										CHANNELS 3 Xrotation Yrotation Zrotation
										JOINT RightHandRing3
										{
											OFFSET -3.200409 -0.861923 -0.256632
											CHANNELS 3 Xrotation Yrotation Zrotation
											End Site
											{
												OFFSET 0.000000 3.324356 0.000000
											}
										}
									}
								}
								JOINT RightHandPinky1
								{
									OFFSET -13.134644 -0.420990 -5.726565
									CHANNELS 3 Xrotation Yrotation Zrotation
									JOINT RightHandPinky2
									{
										OFFSET -2.705887 -0.872284 -0.187247
										CHANNELS 3 Xrotation Yrotation Zrotation
										JOINT RightHandPinky3
										{
											OFFSET -2.653091 -0.882462 -0.224700
											CHANNELS 3 Xrotation Yrotation Zrotation
											End Site
											{
												OFFSET 0.000000 2.805023 0.000000
											}
										}
									}
								}
							}
							JOINT Right_Sleeve
							{
								OFFSET -6.611050 -0.646652 0.631114
								CHANNELS 3 Xrotation Yrotation Zrotation
								End Site
								{
									OFFSET 0.000000 20.275742 0.000000
								}
							}
						}
					}
				}
				JOINT Bind_Right_JacketString
				{
					OFFSET -3.534774 11.969604 7.200667
					CHANNELS 3 Xrotation Yrotation Zrotation
					JOINT Bind_Right_JacketString1
					{
						OFFSET -0.319887 -6.102631 2.794061
						CHANNELS 3 Xrotation Yrotation Zrotation
						End Site
						{
							OFFSET 0.000000 6.719467 0.000000
						}
					}
				}
				JOINT Bind_Left_JacketString
				{
					OFFSET 2.904793 11.969604 7.200667
					CHANNELS 3 Xrotation Yrotation Zrotation
					JOINT Bind_Left_JacketString1
					{
						OFFSET 0.364847 -5.904457 3.186764
						CHANNELS 3 Xrotation Yrotation Zrotation
						End Site
						{
							OFFSET 0.000000 6.719460 0.000000
						}
					}
				}
				JOINT HairE
				{
					OFFSET 5.915198 17.612656 -11.592244
					CHANNELS 3 Xrotation Yrotation Zrotation
					JOINT HairE1
					{
						OFFSET 0.289203 -7.171906 -1.284488
						CHANNELS 3 Xrotation Yrotation Zrotation
						End Site
						{
							OFFSET 0.000000 7.291763 0.000000
						}
					}
				}
				JOINT HairF
				{
					OFFSET -0.864797 17.612656 -11.592244
					CHANNELS 3 Xrotation Yrotation Zrotation
					JOINT HairF1
					{
						OFFSET -0.000000 -14.087097 -2.127508
						CHANNELS 3 Xrotation Yrotation Zrotation
						End Site
						{
							OFFSET 0.000000 14.246841 0.000000
						}
					}
				}
				JOINT HairG
				{
					OFFSET -8.087694 17.612656 -11.592244
					CHANNELS 3 Xrotation Yrotation Zrotation
					JOINT HairG1
					{
						OFFSET -0.293551 -6.081375 -0.910136
						CHANNELS 3 Xrotation Yrotation Zrotation
						End Site
						{
							OFFSET 0.000000 6.156113 0.000000
						}
					}
				}
			}
		}
	}
	JOINT Pouch
	{
		OFFSET 0.000000 4.394547 10.847303
		CHANNELS 3 Xrotation Yrotation Zrotation
		End Site
		{
			OFFSET 0.000000 21.880577 0.000000
		}
	}
	JOINT Bag
	{
		OFFSET -13.229022 4.813034 -0.593262
		CHANNELS 3 Xrotation Yrotation Zrotation
		End Site
		{
			OFFSET 0.000000 21.880577 0.000000
		}
	}
	JOINT OccupyGuyFacialAnim_Joint
	{
		OFFSET 1.000000 -70.206352 -1.654994
		CHANNELS 3 Xrotation Yrotation Zrotation
		End Site
		{
			OFFSET 0.000000 21.880581 0.000000
		}
	}
}
MOTION
Frames: 5
Frame Time: 0.016667
0.992886 69.666367 1.643625 -0.383619 -0.128542 -1.553946 -0.000000 -0.000000 0.000000 -6.463859 5.190639 -3.651782 25.782047 -4.353315 -1.263946 -18.182548 -3.219577 8.409035 0.000000 -0.000000 -0.000000 0.000000 -0.000000 -0.000000 -6.636310 -3.611305 5.859873 23.899773 3.851384 -0.096381 -16.295341 1.357188 -5.715980 -0.000000 -0.000000 -0.000000 -0.000000 -0.000000 0.000000 -9.199295 1.289728 1.069845 7.246681 -0.041691 -1.878295 7.251812 0.041102 -1.863932 2.287006 -1.008078 3.029062 -5.069788 -2.335753 2.401236 -0.000000 -0.000000 0.000000 -0.000000 -0.000000 0.000000 -0.000000 -0.000000 0.000000 -0.000000 -0.000000 0.000000 -0.000000 -0.000000 0.000000 -0.000000 -0.000000 0.000000 -0.000000 -0.000000 0.000000 -0.000000 -0.000000 0.000000 -0.000000 -0.000000 0.000000 0.892944 -0.363511 -11.998518 13.382531 -37.712777 -56.625840 0.000026 -18.394765 0.000528 -16.047335 0.369931 6.059066 4.829843 39.298726 4.085239 -7.748716 -3.509418 6.545173 0.000001 0.000003 0.000001 -0.809560 -5.672119 -3.147042 0.101469 1.279517 -3.551842 0.000002 -0.000001 0.000001 -0.848490 -3.720189 -6.914120 -1.002385 -0.033653 -14.478782 0.000000 -0.000000 0.000001 -1.348638 -3.742289 -14.037341 -2.115938 -0.491461 -23.821168 -0.000000 0.000001 0.000000 0.598465 -0.446178 -16.419467 -3.975523 -4.105164 -30.066875 -0.000001 0.000001 0.000002 0.000001 0.000000 -0.000000 1.709892 -7.765212 12.112668 22.656120 51.697514 52.846745 0.000024 26.223548 -0.000525 -37.297027 -2.438918 -8.885125 8.407260 -35.101763 -9.927994 -6.446991 5.305695 -4.420020 -0.000001 -0.000000 0.000001 -1.328032 5.633387 8.251887 -0.155477 -1.272426 6.813935 -0.000001 0.000000 -0.000000 -1.032994 3.689830 9.689740 -1.048503 0.007312 15.274953 0.000002 -0.000001 -0.000000 -1.330308 3.709497 13.882566 -1.928694 0.525877 21.560947 0.000001 0.000002 0.000002 -1.493820 3.820383 13.647262 -2.358392 0.360932 25.391402 -0.000001 -0.000001 -0.000000 0.000001 0.000000 -0.000000 -0.000000 0.000000 0.000000 -0.000000 0.000000 0.000000 -0.000000 0.000000 0.000000 -0.000000 0.000000 0.000000 -0.000000 0.000000 0.000000 -0.000000 0.000000 0.000000 -0.000000 0.000000 0.000000 -0.000000 0.000000 0.000000 -0.000000 0.000000 0.000000 -0.000000 0.000000 -0.000000 -0.000000 -0.000000 0.000000 -0.000000 -0.000000 0.000000 -0.000000 -0.000000 0.000000 
0.993718 69.676506 1.615806 -0.475074 -0.231158 -1.494888 0.000000 -0.000000 0.000000 -6.303678 5.526001 -3.773318 25.638232 -4.312852 -1.242424 -18.178040 -2.745110 8.461284 0.000000 0.000000 -0.000000 -0.000000 0.000000 -0.000000 -6.598281 -3.273484 5.822514 23.887425 3.577030 -0.042027 -16.264333 1.412704 -5.670936 -0.000000 0.000000 0.000000 0.000001 -0.000000 -0.000000 -9.014632 1.211487 1.105520 7.243671 -0.054628 -1.914695 7.249077 0.027204 -1.900876 2.289489 -0.980009 2.997443 -5.155916 -2.237614 2.396679 -0.000000 0.000000 -0.000000 -0.000000 0.000000 -0.000000 -0.000000 -0.000000 -0.000000 -0.000000 0.000000 -0.000000 -0.000000 0.000000 -0.000000 -0.000000 0.000000 -0.000000 -0.000000 0.000000 -0.000000 -0.000000 0.000000 -0.000000 -0.000000 -0.000000 -0.000000 0.896146 -0.370154 -11.998503 13.310228 -37.991793 -56.653414 0.000010 -17.778895 0.000502 -17.818171 0.499847 6.011205 4.877450 39.331532 4.066468 -7.743869 -3.506550 6.536205 -0.000001 0.000000 0.000002 -0.900538 -5.673237 -4.035237 0.100490 1.279401 -3.564056 -0.000002 0.000001 -0.000000 -0.906504 -3.715148 -7.795078 -1.002885 -0.033594 -14.486046 -0.000002 0.000000 -0.000001 -1.402083 -3.723125 -14.912292 -2.116017 -0.491439 -23.822168 0.000001 -0.000000 0.000000 0.600462 -0.452033 -17.287602 -3.975255 -4.105316 -30.063235 -0.000003 0.000000 -0.000001 0.000001 -0.000001 0.000001 1.710733 -7.768551 12.112762 22.089631 51.673489 53.197792 0.000008 25.930788 -0.000499 -36.808764 -2.392000 -8.894950 8.432248 -35.134049 -9.919943 -6.446993 5.305693 -4.420022 -0.000001 0.000000 0.000001 -1.329471 5.633280 8.266018 -0.156661 -1.272373 6.828725 -0.000000 -0.000001 -0.000000 -1.031659 3.685257 9.699366 -1.049196 0.007216 15.285104 0.000000 0.000001 0.000000 -1.325375 3.699586 13.886549 -1.929021 0.525772 21.565223 0.000001 -0.000001 -0.000000 -1.485027 3.806129 13.646240 -2.358374 0.360933 25.391271 -0.000001 -0.000000 -0.000003 -0.000006 0.000000 0.000000 0.000000 -0.000000 -0.000000 0.000000 -0.000000 -0.000000 0.000000 -0.000000 -0.000000 0.000000 -0.000000 -0.000000 0.000000 -0.000000 -0.000000 0.000000 -0.000000 0.000000 0.000000 -0.000000 -0.000000 0.000000 -0.000000 -0.000000 0.000000 -0.000000 -0.000000 0.000000 -0.000000 -0.000000 0.000000 -0.000000 0.000000 0.000000 -0.000000 0.000000 0.000000 -0.000000 0.000000 
0.990766 69.684479 1.586468 -0.586886 -0.262441 -1.486618 0.000000 0.000000 -0.000000 -6.179410 5.779555 -3.811108 25.583262 -4.324660 -1.228400 -18.183695 -2.422409 8.503850 0.000000 0.000000 0.000000 0.000001 -0.000000 0.000000 -6.509848 -2.892913 5.848796 23.831664 3.231935 0.031020 -16.227585 1.433760 -5.628441 -0.000000 0.000000 0.000000 0.000000 -0.000000 0.000000 -8.656962 1.119827 1.145478 7.158618 -0.064565 -1.933345 7.164082 0.014678 -1.920350 2.298063 -0.960203 2.970376 -5.268168 -2.191121 2.429276 0.000000 -0.000000 0.000000 0.000000 -0.000000 0.000000 0.000000 0.000000 0.000000 0.000000 -0.000000 0.000000 0.000000 -0.000000 0.000000 0.000000 -0.000000 0.000000 0.000000 -0.000000 0.000000 0.000000 -0.000000 0.000000 0.000000 0.000000 0.000000 0.900167 -0.376596 -11.998496 13.033566 -37.907516 -56.780134 0.000017 -17.421772 0.000506 -19.795348 0.705099 5.846339 4.914533 39.357059 4.051835 -7.740015 -3.504285 6.529053 -0.000001 0.000001 0.000002 -0.904095 -5.673262 -4.069968 0.099747 1.279321 -3.573342 0.000002 0.000000 -0.000000 -0.901101 -3.698093 -7.815741 -1.002511 -0.033625 -14.480612 0.000002 -0.000001 -0.000001 -1.382380 -3.686875 -14.915241 -2.114168 -0.492081 -23.798310 0.000002 0.000000 0.000000 0.636140 -0.401068 -17.276634 -3.972432 -4.106848 -30.025539 -0.000000 0.000001 0.000000 -0.000001 0.000000 -0.000000 1.711241 -7.754987 12.112365 21.782126 51.639942 53.370904 0.000031 25.814485 -0.000521 -36.480771 -2.343176 -8.894382 8.451131 -35.158460 -9.913840 -6.446993 5.305694 -4.420022 -0.000000 0.000001 0.000001 -1.330548 5.633180 8.276576 -0.157566 -1.272322 6.839997 0.000001 0.000001 0.000000 -1.025612 3.671854 9.696751 -1.049017 0.007244 15.282553 0.000001 0.000001 -0.000002 -1.308745 3.670588 13.867403 -1.927479 0.526275 21.545366 0.000001 0.000000 0.000001 -1.456954 3.764406 13.612197 -2.355845 0.362093 25.358587 -0.000002 -0.000003 -0.000003 0.000005 -0.000000 -0.000001 -0.000000 -0.000000 0.000000 -0.000000 -0.000000 0.000000 -0.000000 -0.000000 0.000000 -0.000000 -0.000000 0.000000 -0.000000 -0.000000 0.000000 0.000000 0.000000 0.000001 -0.000000 -0.000000 0.000000 -0.000000 -0.000000 0.000000 -0.000000 -0.000000 0.000000 0.000000 -0.000000 0.000001 0.000000 0.000000 -0.000000 0.000000 0.000000 -0.000000 0.000000 0.000000 -0.000000 
0.985902 69.691681 1.553424 -0.710031 -0.247548 -1.509195 0.000000 -0.000000 -0.000000 -6.080622 5.944037 -3.805702 25.577614 -4.316427 -1.219098 -18.191384 -2.205207 8.527536 -0.000000 -0.000000 -0.000000 0.000000 0.000000 -0.000000 -6.393165 -2.492987 5.911064 23.745796 2.848408 0.117987 -16.181814 1.435726 -5.589763 0.000000 0.000000 0.000000 -0.000001 0.000000 -0.000000 -8.173557 1.024543 1.196226 7.011703 -0.071746 -1.944896 7.017103 0.003845 -1.932846 2.313503 -0.946553 2.947246 -5.389747 -2.180464 2.484540 0.000000 0.000000 -0.000000 0.000000 0.000000 -0.000000 0.000000 -0.000000 0.000000 0.000000 0.000000 0.000000 0.000000 0.000000 0.000000 0.000000 0.000000 0.000000 0.000000 0.000000 0.000000 0.000000 0.000000 -0.000000 0.000000 -0.000000 0.000000 0.904811 -0.378310 -11.998483 12.626410 -37.597985 -56.956903 0.000019 -17.243721 0.000523 -21.967562 0.969636 5.623078 4.944592 39.377724 4.039951 -7.736829 -3.502399 6.523186 -0.000000 0.000001 0.000000 -0.906948 -5.673269 -4.097859 0.099149 1.279251 -3.580707 -0.000000 -0.000000 -0.000000 -0.890303 -3.670231 -7.820771 -1.001368 -0.033773 -14.463923 -0.000003 0.000001 0.000001 -1.348261 -3.627879 -14.891351 -2.110540 -0.493362 -23.751501 -0.000000 -0.000001 -0.000002 0.694629 -0.316973 -17.230168 -3.967218 -4.109652 -29.956038 -0.000002 -0.000000 0.000001 -0.000002 0.000000 -0.000000 1.711479 -7.731766 12.111688 21.663207 51.600016 53.410997 0.000022 25.827630 -0.000514 -36.221661 -2.302739 -8.869444 8.465892 -35.177506 -9.909045 -6.446990 5.305694 -4.420024 -0.000002 0.000000 0.000001 -1.331381 5.633127 8.284752 -0.158282 -1.272291 6.848881 0.000001 0.000001 0.000000 -1.015113 3.649965 9.683420 -1.048085 0.007378 15.268820 -0.000002 0.000000 -0.000002 -1.280978 3.623227 13.827005 -1.924213 0.527336 21.503379 -0.000001 -0.000001 -0.000003 -1.410541 3.696231 13.547536 -2.350959 0.364311 25.295573 0.000001 0.000001 0.000001 -0.000002 -0.000002 0.000001 0.000000 0.000000 -0.000000 0.000000 0.000000 -0.000000 0.000000 0.000000 -0.000000 0.000000 0.000000 0.000000 0.000000 0.000000 0.000000 0.000000 0.000000 0.000000 0.000000 0.000000 -0.000000 0.000000 0.000000 -0.000000 0.000000 0.000000 0.000000 0.000000 0.000000 -0.000000 0.000000 -0.000000 -0.000000 0.000000 -0.000000 -0.000000 0.000000 -0.000000 -0.000000 
0.979920 69.699272 1.512923 -0.841668 -0.185413 -1.561100 -0.000000 0.000000 -0.000000 -6.008479 5.887334 -3.787777 25.597234 -4.042637 -1.214591 -18.189448 -2.190807 8.467066 -0.000000 0.000000 0.000000 -0.000000 0.000000 -0.000000 -6.252789 -2.085320 5.999194 23.625262 2.453233 0.230170 -16.119865 1.409562 -5.566361 -0.000000 0.000000 -0.000000 0.000000 0.000000 -0.000000 -7.543032 0.931338 1.268981 6.790025 -0.075135 -1.954864 6.795270 -0.004298 -1.943805 2.339876 -0.940198 2.929474 -5.512870 -2.209608 2.561173 0.000000 -0.000000 0.000000 0.000000 -0.000000 0.000000 0.000000 -0.000000 0.000000 0.000000 -0.000000 0.000000 0.000000 -0.000000 0.000000 0.000000 -0.000000 0.000000 0.000000 -0.000000 0.000000 0.000000 -0.000000 0.000000 0.000000 -0.000000 0.000000 0.910144 -0.370088 -11.998455 12.084869 -37.066644 -57.167372 0.000018 -17.265648 0.000523 -24.410654 1.305517 5.354812 4.954139 39.384285 4.036150 -7.735764 -3.501760 6.521210 -0.000000 0.000001 0.000001 -0.907837 -5.673270 -4.106491 0.098976 1.279225 -3.582862 -0.000001 0.000001 0.000000 -0.873519 -3.632005 -7.798211 -0.999241 -0.034007 -14.432951 -0.000001 -0.000000 0.000003 -1.299621 -3.547112 -14.829095 -2.104964 -0.495327 -23.679340 0.000001 -0.000002 -0.000001 0.774823 -0.200608 -17.137121 -3.959459 -4.113823 -29.852759 -0.000001 0.000001 0.000001 0.000001 0.000000 0.000001 1.711331 -7.699900 12.110760 21.765390 51.549466 53.290956 0.000036 25.997872 -0.000517 -35.994885 -2.283935 -8.798569 8.470084 -35.182905 -9.907689 -6.446992 5.305693 -4.420022 0.000000 0.000000 0.000000 -1.331609 5.633105 8.286977 -0.158489 -1.272281 6.851478 -0.000000 -0.000000 -0.000000 -1.000120 3.619941 9.656150 -1.046152 0.007655 15.240343 0.000000 -0.000000 0.000000 -1.242388 3.558222 13.762634 -1.918989 0.529018 21.436101 -0.000001 -0.000002 -0.000001 -1.346497 3.602557 13.449921 -2.343522 0.367683 25.199513 0.000001 0.000001 -0.000002 0.000001 0.000000 0.000000 -0.000000 0.000000 0.000000 -0.000000 0.000000 0.000000 -0.000000 0.000000 0.000000 -0.000000 0.000000 0.000000 -0.000000 0.000000 0.000000 -0.000000 0.000000 0.000000 -0.000000 0.000000 0.000000 -0.000000 0.000000 0.000000 -0.000000 0.000000 0.000000 -0.000001 0.000000 0.000000 -0.000000 0.000000 -0.000000 -0.000000 0.000000 -0.000000 -0.000000 0.000000 -0.000000 
